<?xml version="1.0" standalone="no"?>
<!DOCTYPE svg PUBLIC "-//W3C//DTD SVG 20010904//EN"
 "http://www.w3.org/TR/2001/REC-SVG-20010904/DTD/svg10.dtd">
<svg version="1.0" xmlns="http://www.w3.org/2000/svg"
 width="225.000000pt" height="225.000000pt" viewBox="0 0 225.000000 225.000000"
 preserveAspectRatio="xMidYMid meet">
<metadata>
Created by potrace 1.11, written by Peter Selinger 2001-2013
</metadata>
<g transform="translate(0.000000,225.000000) scale(0.100000,-0.100000)"
fill="#000000" stroke="none">
<path d="M664 1752 c-122 -43 -195 -156 -179 -277 7 -59 54 -147 90 -171 27
-18 33 -34 12 -34 -8 0 -41 -14 -75 -30 -112 -56 -210 -175 -246 -299 -20 -68
-21 -157 -3 -164 24 -9 34 7 41 65 24 212 184 373 396 396 61 7 65 9 65 32 0
21 -6 25 -42 32 -140 23 -220 162 -164 283 63 137 233 165 335 56 53 -56 98
-27 52 33 -58 76 -187 112 -282 78z"/>
<path d="M1443 1760 c-98 -23 -204 -135 -148 -156 10 -4 33 10 64 39 117 109
290 68 340 -82 15 -46 14 -85 -5 -129 -29 -70 -89 -117 -167 -130 -32 -6 -43
-12 -45 -28 -3 -24 19 -34 76 -34 48 0 140 -35 200 -76 99 -69 182 -214 182
-323 0 -45 12 -64 36 -59 41 7 25 134 -33 249 -43 86 -124 168 -207 209 -32
17 -65 30 -73 30 -21 0 -15 16 12 34 35 23 82 111 90 167 16 118 -69 249 -184
283 -58 17 -87 18 -138 6z"/>
<path d="M1004 1562 c-188 -91 -222 -335 -67 -479 33 -31 41 -43 28 -43 -10 0
-57 -18 -103 -41 -162 -78 -273 -224 -309 -406 -18 -91 -14 -116 19 -111 19 3
23 13 34 73 27 160 104 278 238 366 172 113 405 110 580 -6 106 -70 192 -196
217 -316 22 -108 24 -114 44 -114 68 0 -15 263 -120 382 -52 60 -158 132 -230
158 -27 10 -51 19 -52 20 -2 1 22 27 52 57 64 67 91 139 82 224 -16 152 -123
253 -277 261 -67 4 -81 1 -136 -25z m226 -52 c139 -71 172 -247 68 -364 -92
-106 -254 -105 -350 2 -118 130 -49 338 127 383 41 11 112 1 155 -21z"/>
</g>
</svg>
