<?xml version="1.0" standalone="no"?>
<!DOCTYPE svg PUBLIC "-//W3C//DTD SVG 20010904//EN"
 "http://www.w3.org/TR/2001/REC-SVG-20010904/DTD/svg10.dtd">
<svg version="1.0" xmlns="http://www.w3.org/2000/svg"
 width="512.000000pt" height="512.000000pt" viewBox="0 0 512.000000 512.000000"
 preserveAspectRatio="xMidYMid meet">
<metadata>
Created by potrace 1.11, written by Peter Selinger 2001-2013
</metadata>
<g transform="translate(0.000000,512.000000) scale(0.100000,-0.100000)"
fill="#000000" stroke="none">
<path d="M1115 3863 c-231 -39 -377 -119 -499 -271 -73 -92 -100 -141 -136
-252 -70 -212 -35 -466 89 -643 l39 -55 -52 -38 c-332 -251 -558 -731 -552
-1176 1 -98 15 -127 76 -159 32 -18 86 -19 1119 -19 1062 0 1085 0 1125 20 87
41 96 104 60 392 -9 72 -54 238 -89 329 -96 249 -257 470 -440 607 -33 24 -59
48 -58 53 2 4 18 32 36 61 76 121 113 245 116 388 8 347 -228 656 -570 745
-59 16 -216 27 -264 18z m212 -304 c237 -67 379 -310 322 -554 -21 -91 -60
-155 -144 -238 -90 -89 -104 -114 -95 -174 9 -56 38 -86 125 -130 118 -60 242
-164 325 -272 107 -139 207 -370 234 -536 2 -17 7 -49 11 -72 l7 -43 -89 0
c-117 -1 -1659 -1 -1699 0 l-31 0 18 98 c22 121 38 176 78 274 98 244 270 442
478 547 75 38 111 73 119 117 10 55 -4 100 -42 136 -96 91 -126 124 -154 172
-104 184 -66 429 90 569 128 115 284 152 447 106z"/>
<path d="M4345 3413 c-137 -28 -259 -116 -330 -237 -35 -59 -63 -158 -71 -247
l-6 -66 158 1 158 1 12 72 c25 147 102 214 240 207 139 -6 219 -102 207 -249
-10 -135 -93 -199 -270 -208 -35 -2 -65 -6 -68 -8 -4 -5 -8 -124 -6 -211 l1
-38 73 0 c203 0 304 -80 312 -244 4 -97 -15 -157 -69 -210 -53 -54 -114 -76
-200 -72 -144 7 -232 100 -238 255 -2 47 21 42 -195 43 -73 0 -136 -3 -141 -6
-5 -3 -5 -37 0 -78 28 -245 139 -393 343 -463 72 -24 95 -27 235 -31 236 -6
377 49 499 196 92 111 130 225 125 380 -4 140 -36 219 -123 307 -28 28 -68 59
-90 70 l-40 20 43 30 c93 66 152 177 159 299 13 234 -128 418 -369 479 -90 23
-258 27 -349 8z"/>
<path d="M2606 3089 c-75 -22 -121 -116 -92 -189 6 -14 80 -96 166 -182 l156
-157 -149 -148 c-166 -165 -190 -202 -177 -271 18 -98 118 -145 208 -98 15 8
92 80 171 160 80 80 147 146 151 146 4 0 72 -65 151 -145 79 -80 160 -154 179
-164 115 -58 244 60 194 179 -8 19 -83 103 -167 187 l-151 153 156 158 c162
163 183 195 172 260 -10 56 -66 109 -125 116 -61 7 -106 -24 -259 -178 -80
-80 -147 -146 -151 -146 -3 0 -68 63 -145 140 -76 78 -153 149 -169 160 -38
23 -81 31 -119 19z"/>
</g>
</svg>
